M48
;Layer_Color=9474304
;FILE_FORMAT=4:4
METRIC,LZ
;TYPE=PLATED
T1F00S00C0.3000
T2F00S00C1.1000
T3F00S00C2.5000
%
T01
X01240028Y0053594
X01271524Y00560578
X01294384Y00614172
X01335Y00631444
X01336548Y00572516
X01331Y00700532
X01303528Y0072136
X01291844Y00737616
Y00754888
X01307592Y00756158
X01323594Y00766572
X01316736Y00738124
X01362964Y0075946
X01260348Y00765302
X01254242Y0074675
X01249172Y00792226
X01202182Y0075008
X01208278Y00734
X01211072Y00711962
X01199642Y00701802
X0121539Y00656128
X0122047Y00638302
X01221486Y00617982
X01197356Y00598742
X0123444Y00650795
X01255776Y00693674
X01164844Y0067691
X01142492Y0068326
X01139698Y00634746
X0115697Y0063119
X01161288Y00647954
X01153414Y00610362
X01108964Y00634746
X01105154Y00645922
X01077468Y00697484
X01091946Y00729488
X0114554Y00738886
X01141222Y00774446
X01125474Y0078486
Y00812546
X01118128Y00888492
X01183132Y0089408
X0107188Y00862076
X01239774Y00797814
X01255268Y00812546
X0126319Y00820611
X01278382Y0083312
X01264412Y00911352
X01366266Y00861822
T02
X010256Y00453
X01051
X0103Y00674
Y006994
Y007248
Y0074985
Y0077525
Y0080065
X0117225Y0097725
X0119765
X0122305
T03
X01026Y00396
X01369
X01026Y00984
X01369
M30
