%FSLAX44Y44*%
%MOMM*%
G71*
G01*
G75*
G04 Layer_Color=1462238*
%ADD10R,1.3000X1.2000*%
%ADD11R,1.0000X1.0000*%
%ADD12R,1.0000X0.8000*%
%ADD13R,2.0000X1.6000*%
%ADD14R,1.0000X1.0000*%
G04:AMPARAMS|DCode=15|XSize=1.5mm|YSize=1mm|CornerRadius=0.25mm|HoleSize=0mm|Usage=FLASHONLY|Rotation=270.000|XOffset=0mm|YOffset=0mm|HoleType=Round|Shape=RoundedRectangle|*
%AMROUNDEDRECTD15*
21,1,1.5000,0.5000,0,0,270.0*
21,1,1.0000,1.0000,0,0,270.0*
1,1,0.5000,-0.2500,-0.5000*
1,1,0.5000,-0.2500,0.5000*
1,1,0.5000,0.2500,0.5000*
1,1,0.5000,0.2500,-0.5000*
%
%ADD15ROUNDEDRECTD15*%
G04:AMPARAMS|DCode=16|XSize=1.5mm|YSize=1mm|CornerRadius=0.25mm|HoleSize=0mm|Usage=FLASHONLY|Rotation=180.000|XOffset=0mm|YOffset=0mm|HoleType=Round|Shape=RoundedRectangle|*
%AMROUNDEDRECTD16*
21,1,1.5000,0.5000,0,0,180.0*
21,1,1.0000,1.0000,0,0,180.0*
1,1,0.5000,-0.5000,0.2500*
1,1,0.5000,0.5000,0.2500*
1,1,0.5000,0.5000,-0.2500*
1,1,0.5000,-0.5000,-0.2500*
%
%ADD16ROUNDEDRECTD16*%
%ADD17R,2.0000X0.6000*%
%ADD18R,0.9000X0.8000*%
%ADD19R,1.3000X1.5000*%
%ADD20R,2.4000X1.1000*%
%ADD21R,1.2000X1.3000*%
%ADD22R,0.6000X1.0000*%
%ADD23C,0.2540*%
%ADD24C,1.7000*%
%ADD25R,1.7000X1.7000*%
%ADD26R,1.7000X1.7000*%
%ADD27C,3.5000*%
%ADD28C,0.8000*%
%ADD29C,0.2500*%
%ADD30C,0.6000*%
%ADD31C,0.1524*%
%ADD32C,0.2000*%
%ADD33R,1.5032X1.4032*%
%ADD34R,1.2032X1.2032*%
%ADD35R,1.2032X1.0032*%
%ADD36R,2.2032X1.8032*%
%ADD37R,1.2032X1.2032*%
G04:AMPARAMS|DCode=38|XSize=1.7032mm|YSize=1.2032mm|CornerRadius=0.3516mm|HoleSize=0mm|Usage=FLASHONLY|Rotation=270.000|XOffset=0mm|YOffset=0mm|HoleType=Round|Shape=RoundedRectangle|*
%AMROUNDEDRECTD38*
21,1,1.7032,0.5000,0,0,270.0*
21,1,1.0000,1.2032,0,0,270.0*
1,1,0.7032,-0.2500,-0.5000*
1,1,0.7032,-0.2500,0.5000*
1,1,0.7032,0.2500,0.5000*
1,1,0.7032,0.2500,-0.5000*
%
%ADD38ROUNDEDRECTD38*%
G04:AMPARAMS|DCode=39|XSize=1.7032mm|YSize=1.2032mm|CornerRadius=0.3516mm|HoleSize=0mm|Usage=FLASHONLY|Rotation=180.000|XOffset=0mm|YOffset=0mm|HoleType=Round|Shape=RoundedRectangle|*
%AMROUNDEDRECTD39*
21,1,1.7032,0.5000,0,0,180.0*
21,1,1.0000,1.2032,0,0,180.0*
1,1,0.7032,-0.5000,0.2500*
1,1,0.7032,0.5000,0.2500*
1,1,0.7032,0.5000,-0.2500*
1,1,0.7032,-0.5000,-0.2500*
%
%ADD39ROUNDEDRECTD39*%
%ADD40R,2.2032X0.8032*%
%ADD41R,1.1032X1.0032*%
%ADD42R,1.5032X1.7032*%
%ADD43R,2.6032X1.3032*%
%ADD44R,1.4032X1.5032*%
%ADD45R,0.8032X1.2032*%
%ADD46C,1.9032*%
%ADD47R,1.9032X1.9032*%
%ADD48R,1.9032X1.9032*%
%ADD49C,3.7032*%
%ADD50C,1.0032*%
D23*
X1005000Y387772D02*
G03*
X1017700Y375072I12700J0D01*
G01*
X1375000Y374927D02*
G03*
X1374855Y375072I-145J0D01*
G01*
X1377228Y374927D02*
G03*
X1389928Y387627I0J12700D01*
G01*
Y992228D02*
G03*
X1377228Y1004928I-12700J0D01*
G01*
X1017700D02*
G03*
X1005000Y992228I0J-12700D01*
G01*
X1197500Y277500D02*
Y303540D01*
X1005000Y298460D02*
Y387460D01*
X1134259Y301000D02*
X1197500D01*
X1005000D02*
X1060113D01*
X1182260Y306080D02*
X1197500Y301000D01*
X1182260Y295920D02*
X1197500Y301000D01*
X1005000D02*
X1020240Y295920D01*
X1005000Y301000D02*
X1020240Y306080D01*
X1197500Y1087500D02*
Y1142540D01*
X1005000Y992540D02*
Y1142540D01*
X1134259Y1140000D02*
X1197500D01*
X1005000D02*
X1060113D01*
X1182260Y1145080D02*
X1197500Y1140000D01*
X1182260Y1134920D02*
X1197500Y1140000D01*
X1005000D02*
X1020240Y1134920D01*
X1005000Y1140000D02*
X1020240Y1145080D01*
X1375000Y374927D02*
X1462540D01*
X1377540Y1005000D02*
X1462540D01*
X1460000Y374927D02*
Y633591D01*
Y738208D02*
Y1005000D01*
Y374927D02*
X1465080Y390167D01*
X1454920D02*
X1460000Y374927D01*
X1454920Y989760D02*
X1460000Y1005000D01*
X1465080Y989760D01*
X1390000Y992540D02*
Y1120040D01*
X1004927Y990000D02*
Y1120040D01*
X1245708Y1117500D02*
X1390000D01*
X1004927D02*
X1141091D01*
X1374760Y1122580D02*
X1390000Y1117500D01*
X1374760Y1112420D02*
X1390000Y1117500D01*
X1004927D02*
X1020167Y1112420D01*
X1004927Y1117500D02*
X1020167Y1122580D01*
X1005000Y392540D02*
Y990000D01*
Y387772D02*
Y392540D01*
X1017700Y375072D02*
X1018530D01*
X1374855D01*
X1375000Y374927D02*
X1377228D01*
X1389928Y387627D02*
Y388530D01*
Y991470D01*
Y992228D01*
X1376470Y1004928D02*
X1377228D01*
X1018530D02*
X1376470D01*
X1017700D02*
X1018530D01*
X1005000Y990000D02*
Y992228D01*
D31*
X1064177Y291859D02*
X1069255D01*
X1066716D01*
Y307094D01*
X1064177Y304554D01*
X1076872Y294398D02*
X1079412Y291859D01*
X1084490D01*
X1087029Y294398D01*
Y304554D01*
X1084490Y307094D01*
X1079412D01*
X1076872Y304554D01*
Y302015D01*
X1079412Y299476D01*
X1087029D01*
X1092108Y291859D02*
Y294398D01*
X1094647D01*
Y291859D01*
X1092108D01*
X1114960D02*
X1104803D01*
X1114960Y302015D01*
Y304554D01*
X1112421Y307094D01*
X1107343D01*
X1104803Y304554D01*
X1130195Y307094D02*
X1120039D01*
Y299476D01*
X1125117Y302015D01*
X1127656D01*
X1130195Y299476D01*
Y294398D01*
X1127656Y291859D01*
X1122578D01*
X1120039Y294398D01*
X1064177Y1130859D02*
X1069255D01*
X1066716D01*
Y1146094D01*
X1064177Y1143554D01*
X1076872Y1133398D02*
X1079412Y1130859D01*
X1084490D01*
X1087029Y1133398D01*
Y1143554D01*
X1084490Y1146094D01*
X1079412D01*
X1076872Y1143554D01*
Y1141015D01*
X1079412Y1138476D01*
X1087029D01*
X1092108Y1130859D02*
Y1133398D01*
X1094647D01*
Y1130859D01*
X1092108D01*
X1114960D02*
X1104803D01*
X1114960Y1141015D01*
Y1143554D01*
X1112421Y1146094D01*
X1107343D01*
X1104803Y1143554D01*
X1130195Y1146094D02*
X1120039D01*
Y1138476D01*
X1125117Y1141015D01*
X1127656D01*
X1130195Y1138476D01*
Y1133398D01*
X1127656Y1130859D01*
X1122578D01*
X1120039Y1133398D01*
X1453907Y647812D02*
X1456446Y642734D01*
X1461524Y637655D01*
X1466602D01*
X1469142Y640194D01*
Y645273D01*
X1466602Y647812D01*
X1464063D01*
X1461524Y645273D01*
Y637655D01*
X1456446Y652890D02*
X1453907Y655430D01*
Y660508D01*
X1456446Y663047D01*
X1458985D01*
X1461524Y660508D01*
Y657969D01*
Y660508D01*
X1464063Y663047D01*
X1466602D01*
X1469142Y660508D01*
Y655430D01*
X1466602Y652890D01*
X1469142Y668126D02*
X1466602D01*
Y670665D01*
X1469142D01*
Y668126D01*
X1456446Y680821D02*
X1453907Y683361D01*
Y688439D01*
X1456446Y690978D01*
X1466602D01*
X1469142Y688439D01*
Y683361D01*
X1466602Y680821D01*
X1456446D01*
X1469142Y696056D02*
Y701135D01*
Y698596D01*
X1453907D01*
X1456446Y696056D01*
X1469142Y708752D02*
X1458985D01*
Y711292D01*
X1461524Y713831D01*
X1469142D01*
X1461524D01*
X1458985Y716370D01*
X1461524Y718909D01*
X1469142D01*
Y723987D02*
X1458985D01*
Y726527D01*
X1461524Y729066D01*
X1469142D01*
X1461524D01*
X1458985Y731605D01*
X1461524Y734144D01*
X1469142D01*
X1145155Y1121054D02*
X1147694Y1123594D01*
X1152773D01*
X1155312Y1121054D01*
Y1118515D01*
X1152773Y1115976D01*
X1150234D01*
X1152773D01*
X1155312Y1113437D01*
Y1110898D01*
X1152773Y1108359D01*
X1147694D01*
X1145155Y1110898D01*
X1160390Y1121054D02*
X1162930Y1123594D01*
X1168008D01*
X1170547Y1121054D01*
Y1118515D01*
X1168008Y1115976D01*
X1170547Y1113437D01*
Y1110898D01*
X1168008Y1108359D01*
X1162930D01*
X1160390Y1110898D01*
Y1113437D01*
X1162930Y1115976D01*
X1160390Y1118515D01*
Y1121054D01*
X1162930Y1115976D02*
X1168008D01*
X1175626Y1108359D02*
Y1110898D01*
X1178165D01*
Y1108359D01*
X1175626D01*
X1198478Y1123594D02*
X1188321D01*
Y1115976D01*
X1193400Y1118515D01*
X1195939D01*
X1198478Y1115976D01*
Y1110898D01*
X1195939Y1108359D01*
X1190861D01*
X1188321Y1110898D01*
X1203556Y1108359D02*
X1208635D01*
X1206096D01*
Y1123594D01*
X1203556Y1121054D01*
X1216252Y1108359D02*
Y1118515D01*
X1218792D01*
X1221331Y1115976D01*
Y1108359D01*
Y1115976D01*
X1223870Y1118515D01*
X1226409Y1115976D01*
Y1108359D01*
X1231487D02*
Y1118515D01*
X1234027D01*
X1236566Y1115976D01*
Y1108359D01*
Y1115976D01*
X1239105Y1118515D01*
X1241644Y1115976D01*
Y1108359D01*
M02*
