%FSLAX44Y44*%
%MOMM*%
G71*
G01*
G75*
G04 Layer_Color=128*
%ADD10R,2.0000X0.7000*%
%ADD11R,2.0000X1.0000*%
%ADD12R,1.2000X1.8000*%
%ADD13R,0.8000X1.8000*%
%ADD14R,2.8000X1.8000*%
%ADD15R,1.9000X1.8000*%
%ADD16R,0.9000X0.8000*%
%ADD17R,1.0000X1.0000*%
%ADD18R,1.6000X1.4000*%
%ADD19R,2.8000X1.1000*%
%ADD20R,1.3000X1.2000*%
%ADD21R,0.9500X0.6000*%
%ADD22R,0.9000X0.5000*%
%ADD23R,0.9000X0.3200*%
%ADD24C,0.2540*%
%ADD25C,1.7000*%
%ADD26R,1.7000X1.7000*%
%ADD27R,1.7000X1.7000*%
%ADD28C,3.5000*%
%ADD29C,0.8000*%
%ADD30R,2.2032X0.9032*%
%ADD31R,2.2032X1.2032*%
%ADD32R,1.4032X2.0032*%
%ADD33R,1.0032X2.0032*%
%ADD34R,3.0032X2.0032*%
%ADD35R,2.1032X2.0032*%
%ADD36R,1.1032X1.0032*%
%ADD37R,1.2032X1.2032*%
%ADD38R,1.8032X1.6032*%
%ADD39R,3.0032X1.3032*%
%ADD40R,1.5032X1.4032*%
%ADD41R,1.1532X0.8032*%
%ADD42R,1.1032X0.7032*%
%ADD43R,1.1032X0.5232*%
%ADD44C,1.9032*%
%ADD45R,1.9032X1.9032*%
%ADD46R,1.9032X1.9032*%
%ADD47C,3.7032*%
%ADD48C,1.0032*%
D10*
X1220691Y778000D02*
D03*
Y767000D02*
D03*
Y756000D02*
D03*
Y745000D02*
D03*
Y734000D02*
D03*
Y723000D02*
D03*
Y712000D02*
D03*
Y701000D02*
D03*
Y690000D02*
D03*
D11*
Y676000D02*
D03*
D12*
X1176992Y787100D02*
D03*
D13*
X1114591Y786500D02*
D03*
D14*
X1073691D02*
D03*
D15*
X1068891Y647900D02*
D03*
D16*
X1295691Y749500D02*
D03*
Y768500D02*
D03*
X1275691Y759000D02*
D03*
D17*
X1336691Y657500D02*
D03*
Y685000D02*
D03*
Y712500D02*
D03*
Y740000D02*
D03*
Y767500D02*
D03*
Y795000D02*
D03*
D18*
X1204441Y505250D02*
D03*
Y460250D02*
D03*
X1292441Y505250D02*
D03*
Y460250D02*
D03*
X1161691Y537000D02*
D03*
Y582000D02*
D03*
X1073691Y537000D02*
D03*
Y582000D02*
D03*
X1336691D02*
D03*
Y537000D02*
D03*
X1424691Y582000D02*
D03*
Y537000D02*
D03*
D19*
X1234691Y830000D02*
D03*
Y861000D02*
D03*
X1180452Y890670D02*
D03*
Y921670D02*
D03*
X1124702Y950888D02*
D03*
Y981888D02*
D03*
D20*
X1269691Y852000D02*
D03*
Y832000D02*
D03*
X1215191Y894500D02*
D03*
Y914500D02*
D03*
X1159691Y973500D02*
D03*
Y953500D02*
D03*
D21*
X1418691Y929000D02*
D03*
X1396691Y919500D02*
D03*
Y938500D02*
D03*
D22*
X1276691Y713050D02*
D03*
Y686000D02*
D03*
X1294791D02*
D03*
Y713050D02*
D03*
D23*
X1276691Y705800D02*
D03*
Y699400D02*
D03*
Y693000D02*
D03*
X1294791D02*
D03*
Y699400D02*
D03*
Y705800D02*
D03*
M02*
