%FSLAX44Y44*%
%MOMM*%
G71*
G01*
G75*
G04 Layer_Color=32896*
%ADD10R,2.0000X0.7000*%
%ADD11R,2.0000X1.0000*%
%ADD12R,1.2000X1.8000*%
%ADD13R,0.8000X1.8000*%
%ADD14R,2.8000X1.8000*%
%ADD15R,1.9000X1.8000*%
%ADD16R,0.9000X0.8000*%
%ADD17R,1.0000X1.0000*%
%ADD18R,1.6000X1.4000*%
%ADD19R,2.8000X1.1000*%
%ADD20R,1.3000X1.2000*%
%ADD21R,0.9500X0.6000*%
%ADD22R,0.9000X0.5000*%
%ADD23R,0.9000X0.3200*%
%ADD24C,0.2540*%
%ADD25C,1.7000*%
%ADD26R,1.7000X1.7000*%
%ADD27R,1.7000X1.7000*%
%ADD28C,3.5000*%
%ADD29C,0.8000*%
%ADD30R,2.2032X0.9032*%
%ADD31R,2.2032X1.2032*%
%ADD32R,1.4032X2.0032*%
%ADD33R,1.0032X2.0032*%
%ADD34R,3.0032X2.0032*%
%ADD35R,2.1032X2.0032*%
%ADD36R,1.1032X1.0032*%
%ADD37R,1.2032X1.2032*%
%ADD38R,1.8032X1.6032*%
%ADD39R,3.0032X1.3032*%
%ADD40R,1.5032X1.4032*%
%ADD41R,1.1532X0.8032*%
%ADD42R,1.1032X0.7032*%
%ADD43R,1.1032X0.5232*%
%ADD44C,1.9032*%
%ADD45R,1.9032X1.9032*%
%ADD46R,1.9032X1.9032*%
%ADD47C,3.7032*%
%ADD48C,1.0032*%
%ADD49C,0.2500*%
%ADD50C,0.2000*%
%ADD51C,0.1524*%
%ADD52C,0.1800*%
%ADD53R,0.5000X0.5000*%
%ADD54R,0.7500X0.3128*%
%ADD55R,0.2500X0.5000*%
%ADD56R,0.2500X0.5000*%
%ADD57R,0.7500X0.3636*%
%ADD58R,0.7500X0.3128*%
%ADD59R,0.2500X0.5000*%
%ADD60R,0.2500X0.5000*%
%ADD61R,0.7500X0.3636*%
G36*
X1233691Y690000D02*
X1233691D01*
X1236691Y687000D01*
Y693000D01*
X1233691Y690000D01*
D02*
G37*
D24*
X1226786Y845500D02*
G03*
X1226786Y845500I7906J0D01*
G01*
X1172546Y906170D02*
G03*
X1172546Y906170I7906J0D01*
G01*
X1116796Y966388D02*
G03*
X1116796Y966388I7906J0D01*
G01*
X1060441Y658500D02*
Y776250D01*
X1226691Y667000D02*
X1225691Y666000D01*
X1238691Y667000D02*
Y785000D01*
Y667000D02*
X1226691D01*
X1238691Y785000D02*
Y787000D01*
X1225691D01*
Y791000D01*
X1186691D01*
Y800000D01*
X1167691D01*
Y791000D02*
Y800000D01*
Y791000D02*
X1122691D01*
Y799000D01*
X1122591Y798900D01*
X1108291D01*
X1105991D01*
X1105791Y798700D01*
Y791400D02*
Y798700D01*
Y791400D02*
X1105691Y791300D01*
X1090691D01*
Y799000D01*
X1061191D01*
X1225691Y646000D02*
Y666000D01*
Y646000D02*
X1224691Y645000D01*
X1081691D01*
Y636000D02*
Y645000D01*
Y636000D02*
X1059941D01*
X1209441Y469250D02*
Y496250D01*
X1288441Y515250D02*
X1209441D01*
X1287441Y450250D02*
X1209441D01*
X1287441Y469250D02*
Y496250D01*
X1156691Y546000D02*
Y573000D01*
Y527000D02*
X1077691D01*
X1156691Y592000D02*
X1078691D01*
Y546000D02*
Y573000D01*
X1341691Y546000D02*
Y573000D01*
X1420691Y592000D02*
X1341691D01*
X1419691Y527000D02*
X1341691D01*
X1419691Y546000D02*
Y573000D01*
D49*
X1294441Y740000D02*
G03*
X1294441Y740000I1250J0D01*
G01*
X1395441Y946250D02*
G03*
X1395441Y946250I1250J0D01*
G01*
D50*
X1288690Y744000D02*
X1278691D01*
Y751000D01*
X1288690Y774000D02*
X1278691D01*
Y767000D02*
Y774000D01*
X1414691Y913500D02*
Y922750D01*
Y913500D02*
X1404691D01*
X1414691Y935250D02*
Y944500D01*
X1404691D01*
X1399023Y904665D02*
X1397690Y905997D01*
X1395024D01*
X1393691Y904665D01*
Y899333D01*
X1395024Y898000D01*
X1397690D01*
X1399023Y899333D01*
X1401689Y905997D02*
X1404355D01*
X1403022D01*
Y898000D01*
X1401689D01*
X1404355D01*
X1413685Y905997D02*
X1411019Y904665D01*
X1408353Y901999D01*
Y899333D01*
X1409686Y898000D01*
X1412352D01*
X1413685Y899333D01*
Y900666D01*
X1412352Y901999D01*
X1408353D01*
X1073063Y626165D02*
X1071730Y627497D01*
X1069064D01*
X1067731Y626165D01*
Y620833D01*
X1069064Y619500D01*
X1071730D01*
X1073063Y620833D01*
X1075729Y619500D02*
Y627497D01*
X1081060Y619500D01*
Y627497D01*
X1083726Y626165D02*
X1085059Y627497D01*
X1087725D01*
X1089058Y626165D01*
Y624832D01*
X1087725Y623499D01*
X1086392D01*
X1087725D01*
X1089058Y622166D01*
Y620833D01*
X1087725Y619500D01*
X1085059D01*
X1083726Y620833D01*
X1220391Y880997D02*
Y873000D01*
X1224390D01*
X1225723Y874333D01*
Y879665D01*
X1224390Y880997D01*
X1220391D01*
X1228389Y873000D02*
X1231055D01*
X1229722D01*
Y880997D01*
X1228389Y879665D01*
X1166691Y940997D02*
Y933000D01*
X1170690D01*
X1172023Y934333D01*
Y939665D01*
X1170690Y940997D01*
X1166691D01*
X1180020Y933000D02*
X1174689D01*
X1180020Y938332D01*
Y939665D01*
X1178687Y940997D01*
X1176022D01*
X1174689Y939665D01*
X1109691Y1000997D02*
Y993000D01*
X1113690D01*
X1115023Y994333D01*
Y999665D01*
X1113690Y1000997D01*
X1109691D01*
X1117689Y999665D02*
X1119022Y1000997D01*
X1121687D01*
X1123020Y999665D01*
Y998332D01*
X1121687Y996999D01*
X1120355D01*
X1121687D01*
X1123020Y995666D01*
Y994333D01*
X1121687Y993000D01*
X1119022D01*
X1117689Y994333D01*
X1283023Y781333D02*
Y786665D01*
X1281690Y787997D01*
X1279024D01*
X1277691Y786665D01*
Y781333D01*
X1279024Y780000D01*
X1281690D01*
X1280357Y782666D02*
X1283023Y780000D01*
X1281690D02*
X1283023Y781333D01*
X1291020Y780000D02*
X1285689D01*
X1291020Y785332D01*
Y786665D01*
X1289687Y787997D01*
X1287022D01*
X1285689Y786665D01*
X1271691Y722000D02*
Y729997D01*
X1275690D01*
X1277023Y728664D01*
Y725999D01*
X1275690Y724666D01*
X1271691D01*
X1274357D02*
X1277023Y722000D01*
X1279689Y729997D02*
X1285020D01*
Y728664D01*
X1279689Y723333D01*
Y722000D01*
X1262191Y864500D02*
Y872497D01*
X1266190D01*
X1267523Y871164D01*
Y868499D01*
X1266190Y867166D01*
X1262191D01*
X1264857D02*
X1267523Y864500D01*
X1270189D02*
X1272855D01*
X1271522D01*
Y872497D01*
X1270189Y871164D01*
X1276853Y864500D02*
X1279519D01*
X1278186D01*
Y872497D01*
X1276853Y871164D01*
X1207691Y927000D02*
Y934997D01*
X1211690D01*
X1213023Y933664D01*
Y930999D01*
X1211690Y929666D01*
X1207691D01*
X1210357D02*
X1213023Y927000D01*
X1215689D02*
X1218354D01*
X1217022D01*
Y934997D01*
X1215689Y933664D01*
X1227685Y927000D02*
X1222353D01*
X1227685Y932332D01*
Y933664D01*
X1226352Y934997D01*
X1223686D01*
X1222353Y933664D01*
X1152191Y986000D02*
Y993997D01*
X1156190D01*
X1157523Y992664D01*
Y989999D01*
X1156190Y988666D01*
X1152191D01*
X1154857D02*
X1157523Y986000D01*
X1160189D02*
X1162855D01*
X1161522D01*
Y993997D01*
X1160189Y992664D01*
X1166853D02*
X1168186Y993997D01*
X1170852D01*
X1172185Y992664D01*
Y991332D01*
X1170852Y989999D01*
X1169519D01*
X1170852D01*
X1172185Y988666D01*
Y987333D01*
X1170852Y986000D01*
X1168186D01*
X1166853Y987333D01*
X1348023Y516665D02*
X1346690Y517997D01*
X1344024D01*
X1342691Y516665D01*
Y515332D01*
X1344024Y513999D01*
X1346690D01*
X1348023Y512666D01*
Y511333D01*
X1346690Y510000D01*
X1344024D01*
X1342691Y511333D01*
X1350689Y517997D02*
Y510000D01*
X1353354Y512666D01*
X1356020Y510000D01*
Y517997D01*
X1358686Y510000D02*
X1361352D01*
X1360019D01*
Y517997D01*
X1358686Y516665D01*
X1201773Y439915D02*
X1200440Y441247D01*
X1197774D01*
X1196441Y439915D01*
Y438582D01*
X1197774Y437249D01*
X1200440D01*
X1201773Y435916D01*
Y434583D01*
X1200440Y433250D01*
X1197774D01*
X1196441Y434583D01*
X1204439Y441247D02*
Y433250D01*
X1207104Y435916D01*
X1209770Y433250D01*
Y441247D01*
X1217768Y433250D02*
X1212436D01*
X1217768Y438582D01*
Y439915D01*
X1216435Y441247D01*
X1213769D01*
X1212436Y439915D01*
X1083023Y517664D02*
X1081690Y518997D01*
X1079024D01*
X1077691Y517664D01*
Y516332D01*
X1079024Y514999D01*
X1081690D01*
X1083023Y513666D01*
Y512333D01*
X1081690Y511000D01*
X1079024D01*
X1077691Y512333D01*
X1085689Y518997D02*
Y511000D01*
X1088354Y513666D01*
X1091020Y511000D01*
Y518997D01*
X1093686Y517664D02*
X1095019Y518997D01*
X1097685D01*
X1099018Y517664D01*
Y516332D01*
X1097685Y514999D01*
X1096352D01*
X1097685D01*
X1099018Y513666D01*
Y512333D01*
X1097685Y511000D01*
X1095019D01*
X1093686Y512333D01*
X1349191Y797997D02*
X1354523D01*
X1351857D01*
Y790000D01*
X1357189D02*
Y797997D01*
X1361187D01*
X1362520Y796665D01*
Y793999D01*
X1361187Y792666D01*
X1357189D01*
X1370518Y797997D02*
X1365186D01*
Y793999D01*
X1367852Y795332D01*
X1369185D01*
X1370518Y793999D01*
Y791333D01*
X1369185Y790000D01*
X1366519D01*
X1365186Y791333D01*
X1349191Y770497D02*
X1354523D01*
X1351857D01*
Y762500D01*
X1357189D02*
Y770497D01*
X1361187D01*
X1362520Y769165D01*
Y766499D01*
X1361187Y765166D01*
X1357189D01*
X1370518Y770497D02*
X1367852Y769165D01*
X1365186Y766499D01*
Y763833D01*
X1366519Y762500D01*
X1369185D01*
X1370518Y763833D01*
Y765166D01*
X1369185Y766499D01*
X1365186D01*
X1349191Y742997D02*
X1354523D01*
X1351857D01*
Y735000D01*
X1357189D02*
Y742997D01*
X1361187D01*
X1362520Y741665D01*
Y738999D01*
X1361187Y737666D01*
X1357189D01*
X1365186Y742997D02*
X1370518D01*
Y741665D01*
X1365186Y736333D01*
Y735000D01*
X1349191Y715497D02*
X1354523D01*
X1351857D01*
Y707500D01*
X1357189D02*
Y715497D01*
X1361187D01*
X1362520Y714165D01*
Y711499D01*
X1361187Y710166D01*
X1357189D01*
X1365186Y714165D02*
X1366519Y715497D01*
X1369185D01*
X1370518Y714165D01*
Y712832D01*
X1369185Y711499D01*
X1370518Y710166D01*
Y708833D01*
X1369185Y707500D01*
X1366519D01*
X1365186Y708833D01*
Y710166D01*
X1366519Y711499D01*
X1365186Y712832D01*
Y714165D01*
X1366519Y711499D02*
X1369185D01*
X1349191Y687997D02*
X1354523D01*
X1351857D01*
Y680000D01*
X1357189D02*
Y687997D01*
X1361187D01*
X1362520Y686665D01*
Y683999D01*
X1361187Y682666D01*
X1357189D01*
X1365186Y681333D02*
X1366519Y680000D01*
X1369185D01*
X1370518Y681333D01*
Y686665D01*
X1369185Y687997D01*
X1366519D01*
X1365186Y686665D01*
Y685332D01*
X1366519Y683999D01*
X1370518D01*
X1349191Y662997D02*
X1354523D01*
X1351857D01*
Y655000D01*
X1357189D02*
Y662997D01*
X1361187D01*
X1362520Y661665D01*
Y658999D01*
X1361187Y657666D01*
X1357189D01*
X1365186Y655000D02*
X1367852D01*
X1366519D01*
Y662997D01*
X1365186Y661665D01*
X1371851D02*
X1373184Y662997D01*
X1375849D01*
X1377182Y661665D01*
Y656333D01*
X1375849Y655000D01*
X1373184D01*
X1371851Y656333D01*
Y661665D01*
D51*
X1329191Y650000D02*
Y665000D01*
X1344191Y650000D02*
X1329191D01*
X1344191D02*
Y665000D01*
X1329191D01*
Y677500D02*
Y692500D01*
X1344191Y677500D02*
X1329191D01*
X1344191D02*
Y692500D01*
X1329191D01*
Y705000D02*
Y720000D01*
X1344191Y705000D02*
X1329191D01*
X1344191D02*
Y720000D01*
X1329191D01*
Y732500D02*
Y747500D01*
X1344191Y732500D02*
X1329191D01*
X1344191D02*
Y747500D01*
X1329191D01*
Y760000D02*
Y775000D01*
X1344191Y760000D02*
X1329191D01*
X1344191D02*
Y775000D01*
X1329191D01*
Y787500D02*
Y802500D01*
X1344191Y787500D02*
X1329191D01*
X1344191D02*
Y802500D01*
X1329191D01*
X1217191Y820500D02*
Y868000D01*
X1252191Y820500D02*
X1217191D01*
X1252191D02*
Y868000D01*
X1217191D01*
X1162951Y881170D02*
Y928670D01*
X1197951Y881170D02*
X1162951D01*
X1197951D02*
Y928670D01*
X1162951D01*
X1107202Y941388D02*
Y988888D01*
X1142202Y941388D02*
X1107202D01*
X1142202D02*
Y988888D01*
X1107202D01*
D52*
X1270791Y682100D02*
Y717000D01*
X1300690D02*
X1270791D01*
X1300690Y682100D02*
Y717000D01*
Y682100D02*
X1270791D01*
D53*
X1234691Y845500D02*
D03*
X1180451Y906170D02*
D03*
X1124702Y966388D02*
D03*
D54*
X1248441Y838936D02*
D03*
D55*
X1250941Y833000D02*
D03*
X1108452Y953888D02*
D03*
D56*
X1218441Y833000D02*
D03*
X1140952Y953888D02*
D03*
D57*
X1220941Y838682D02*
D03*
D58*
X1194201Y899606D02*
D03*
X1138452Y959824D02*
D03*
D59*
X1196701Y893670D02*
D03*
D60*
X1164201D02*
D03*
D61*
X1166701Y899352D02*
D03*
X1110952Y959570D02*
D03*
M02*
