%FSLAX44Y44*%
%MOMM*%
G71*
G01*
G75*
G04 Layer_Color=8388736*
%ADD10R,1.3000X1.2000*%
%ADD11R,1.0000X1.0000*%
%ADD12R,1.0000X0.8000*%
%ADD13R,2.0000X1.6000*%
%ADD14R,1.0000X1.0000*%
G04:AMPARAMS|DCode=15|XSize=1.5mm|YSize=1mm|CornerRadius=0.25mm|HoleSize=0mm|Usage=FLASHONLY|Rotation=270.000|XOffset=0mm|YOffset=0mm|HoleType=Round|Shape=RoundedRectangle|*
%AMROUNDEDRECTD15*
21,1,1.5000,0.5000,0,0,270.0*
21,1,1.0000,1.0000,0,0,270.0*
1,1,0.5000,-0.2500,-0.5000*
1,1,0.5000,-0.2500,0.5000*
1,1,0.5000,0.2500,0.5000*
1,1,0.5000,0.2500,-0.5000*
%
%ADD15ROUNDEDRECTD15*%
G04:AMPARAMS|DCode=16|XSize=1.5mm|YSize=1mm|CornerRadius=0.25mm|HoleSize=0mm|Usage=FLASHONLY|Rotation=180.000|XOffset=0mm|YOffset=0mm|HoleType=Round|Shape=RoundedRectangle|*
%AMROUNDEDRECTD16*
21,1,1.5000,0.5000,0,0,180.0*
21,1,1.0000,1.0000,0,0,180.0*
1,1,0.5000,-0.5000,0.2500*
1,1,0.5000,0.5000,0.2500*
1,1,0.5000,0.5000,-0.2500*
1,1,0.5000,-0.5000,-0.2500*
%
%ADD16ROUNDEDRECTD16*%
%ADD17R,2.0000X0.6000*%
%ADD18R,0.9000X0.8000*%
%ADD19R,1.3000X1.5000*%
%ADD20R,2.4000X1.1000*%
%ADD21R,1.2000X1.3000*%
%ADD22R,0.6000X1.0000*%
%ADD23C,0.2540*%
%ADD24C,1.7000*%
%ADD25R,1.7000X1.7000*%
%ADD26R,1.7000X1.7000*%
%ADD27C,3.5000*%
%ADD28C,0.8000*%
%ADD29C,0.2500*%
%ADD30C,0.6000*%
%ADD31C,0.1524*%
%ADD32C,0.2000*%
%ADD33R,1.5032X1.4032*%
%ADD34R,1.2032X1.2032*%
%ADD35R,1.2032X1.0032*%
%ADD36R,2.2032X1.8032*%
%ADD37R,1.2032X1.2032*%
G04:AMPARAMS|DCode=38|XSize=1.7032mm|YSize=1.2032mm|CornerRadius=0.3516mm|HoleSize=0mm|Usage=FLASHONLY|Rotation=270.000|XOffset=0mm|YOffset=0mm|HoleType=Round|Shape=RoundedRectangle|*
%AMROUNDEDRECTD38*
21,1,1.7032,0.5000,0,0,270.0*
21,1,1.0000,1.2032,0,0,270.0*
1,1,0.7032,-0.2500,-0.5000*
1,1,0.7032,-0.2500,0.5000*
1,1,0.7032,0.2500,0.5000*
1,1,0.7032,0.2500,-0.5000*
%
%ADD38ROUNDEDRECTD38*%
G04:AMPARAMS|DCode=39|XSize=1.7032mm|YSize=1.2032mm|CornerRadius=0.3516mm|HoleSize=0mm|Usage=FLASHONLY|Rotation=180.000|XOffset=0mm|YOffset=0mm|HoleType=Round|Shape=RoundedRectangle|*
%AMROUNDEDRECTD39*
21,1,1.7032,0.5000,0,0,180.0*
21,1,1.0000,1.2032,0,0,180.0*
1,1,0.7032,-0.5000,0.2500*
1,1,0.7032,0.5000,0.2500*
1,1,0.7032,0.5000,-0.2500*
1,1,0.7032,-0.5000,-0.2500*
%
%ADD39ROUNDEDRECTD39*%
%ADD40R,2.2032X0.8032*%
%ADD41R,1.1032X1.0032*%
%ADD42R,1.5032X1.7032*%
%ADD43R,2.6032X1.3032*%
%ADD44R,1.4032X1.5032*%
%ADD45R,0.8032X1.2032*%
%ADD46C,1.9032*%
%ADD47R,1.9032X1.9032*%
%ADD48R,1.9032X1.9032*%
%ADD49C,3.7032*%
%ADD50C,1.0032*%
D33*
X1353000Y930000D02*
D03*
Y910000D02*
D03*
X1175000Y593000D02*
D03*
Y573000D02*
D03*
X1246000D02*
D03*
Y593000D02*
D03*
X1067000Y573000D02*
D03*
Y593000D02*
D03*
X1138000Y573000D02*
D03*
Y593000D02*
D03*
X1105000Y742000D02*
D03*
Y762000D02*
D03*
X1080000D02*
D03*
Y742000D02*
D03*
X1357000Y738000D02*
D03*
Y718000D02*
D03*
X1132000Y762000D02*
D03*
Y742000D02*
D03*
X1303000Y680000D02*
D03*
Y700000D02*
D03*
X1157000Y762000D02*
D03*
Y742000D02*
D03*
X1331000Y718000D02*
D03*
Y738000D02*
D03*
X1110000Y679000D02*
D03*
Y659000D02*
D03*
X1110000Y701000D02*
D03*
Y721000D02*
D03*
X1283000Y573000D02*
D03*
Y593000D02*
D03*
X1162000Y905000D02*
D03*
Y885000D02*
D03*
X1353000Y884000D02*
D03*
Y864000D02*
D03*
X1307000Y787000D02*
D03*
Y807000D02*
D03*
D34*
X1134000Y980000D02*
D03*
X1028000Y569000D02*
D03*
X1027650Y604690D02*
D03*
D35*
X1221500Y573500D02*
D03*
Y592500D02*
D03*
X1194500Y583000D02*
D03*
X1113500Y573500D02*
D03*
Y592500D02*
D03*
X1086500Y583000D02*
D03*
D36*
X1143000Y668500D02*
D03*
Y710750D02*
D03*
D37*
X1335000Y617000D02*
D03*
Y646000D02*
D03*
Y675000D02*
D03*
D38*
X1096500Y540000D02*
D03*
X1276500Y410000D02*
D03*
X1231500D02*
D03*
X1096500D02*
D03*
X1111500Y540000D02*
D03*
X1261500D02*
D03*
X1276500D02*
D03*
D39*
X1079000Y422500D02*
D03*
D40*
X1277000Y632450D02*
D03*
Y645150D02*
D03*
Y657850D02*
D03*
Y670550D02*
D03*
Y683250D02*
D03*
Y695950D02*
D03*
Y708650D02*
D03*
Y721350D02*
D03*
Y734050D02*
D03*
Y746750D02*
D03*
Y759450D02*
D03*
Y772150D02*
D03*
Y784850D02*
D03*
Y797550D02*
D03*
X1183000Y632450D02*
D03*
Y645150D02*
D03*
Y657850D02*
D03*
Y670550D02*
D03*
Y683250D02*
D03*
Y695950D02*
D03*
Y708650D02*
D03*
Y721350D02*
D03*
Y734050D02*
D03*
Y746750D02*
D03*
Y759450D02*
D03*
Y772150D02*
D03*
Y784850D02*
D03*
Y797550D02*
D03*
D41*
X1323000Y573500D02*
D03*
Y592500D02*
D03*
X1303000Y583000D02*
D03*
D42*
X1188000Y875000D02*
D03*
X1217000D02*
D03*
X1333000Y778000D02*
D03*
X1362000D02*
D03*
D43*
X1202500Y913250D02*
D03*
X1347500Y816250D02*
D03*
D44*
X1276000Y930000D02*
D03*
X1256000D02*
D03*
X1329000D02*
D03*
X1309000D02*
D03*
X1276000Y864000D02*
D03*
X1256000D02*
D03*
X1309000D02*
D03*
X1329000D02*
D03*
D45*
X1256500Y883250D02*
D03*
X1266000D02*
D03*
X1275500D02*
D03*
Y910750D02*
D03*
X1256500D02*
D03*
X1309500Y883250D02*
D03*
X1319000D02*
D03*
X1328500D02*
D03*
Y910750D02*
D03*
X1309500D02*
D03*
D46*
X1223050Y977250D02*
D03*
X1197650D02*
D03*
X1025600Y453000D02*
D03*
X1030000Y749850D02*
D03*
Y800650D02*
D03*
Y775250D02*
D03*
Y699400D02*
D03*
Y724800D02*
D03*
D47*
X1172250Y977250D02*
D03*
X1051000Y453000D02*
D03*
D48*
X1030000Y674000D02*
D03*
D49*
X1026000Y984000D02*
D03*
X1369000D02*
D03*
Y396000D02*
D03*
X1026000D02*
D03*
D50*
X1271524Y560578D02*
D03*
X1264412Y911352D02*
D03*
X1141222Y774446D02*
D03*
X1307592Y756158D02*
D03*
X1240028Y535940D02*
D03*
X1336548Y572516D02*
D03*
X1145540Y738886D02*
D03*
X1278382Y833120D02*
D03*
X1071880Y862076D02*
D03*
X1118128Y888492D02*
D03*
X1153414Y610362D02*
D03*
X1105154Y645922D02*
D03*
X1091946Y729488D02*
D03*
X1164844Y676910D02*
D03*
X1161288Y647954D02*
D03*
X1335000Y631444D02*
D03*
X1294384Y614172D02*
D03*
X1156970Y631190D02*
D03*
X1239774Y797814D02*
D03*
X1260348Y765302D02*
D03*
X1202182Y750080D02*
D03*
X1316736Y738124D02*
D03*
X1197356Y598742D02*
D03*
X1362964Y759460D02*
D03*
X1291844Y737616D02*
D03*
Y754888D02*
D03*
X1255776Y693674D02*
D03*
X1323594Y766572D02*
D03*
X1366266Y861822D02*
D03*
X1139698Y634746D02*
D03*
X1108964D02*
D03*
X1077468Y697484D02*
D03*
X1183132Y894080D02*
D03*
X1142492Y683260D02*
D03*
X1221486Y617982D02*
D03*
X1303528Y721360D02*
D03*
X1220470Y638302D02*
D03*
X1208278Y734000D02*
D03*
X1199642Y701802D02*
D03*
X1254242Y746750D02*
D03*
X1211072Y711962D02*
D03*
X1215390Y656128D02*
D03*
X1255268Y812546D02*
D03*
X1125474D02*
D03*
Y784860D02*
D03*
X1249172Y792226D02*
D03*
X1263190Y820611D02*
D03*
X1331000Y700532D02*
D03*
X1234440Y650795D02*
D03*
M02*
