%FSLAX44Y44*%
%MOMM*%
G71*
G01*
G75*
G04 Layer_Color=8421504*
%ADD10R,1.3000X1.2000*%
%ADD11R,1.0000X1.0000*%
%ADD12R,1.0000X0.8000*%
%ADD13R,2.0000X1.6000*%
%ADD14R,1.0000X1.0000*%
G04:AMPARAMS|DCode=15|XSize=1.5mm|YSize=1mm|CornerRadius=0.25mm|HoleSize=0mm|Usage=FLASHONLY|Rotation=270.000|XOffset=0mm|YOffset=0mm|HoleType=Round|Shape=RoundedRectangle|*
%AMROUNDEDRECTD15*
21,1,1.5000,0.5000,0,0,270.0*
21,1,1.0000,1.0000,0,0,270.0*
1,1,0.5000,-0.2500,-0.5000*
1,1,0.5000,-0.2500,0.5000*
1,1,0.5000,0.2500,0.5000*
1,1,0.5000,0.2500,-0.5000*
%
%ADD15ROUNDEDRECTD15*%
G04:AMPARAMS|DCode=16|XSize=1.5mm|YSize=1mm|CornerRadius=0.25mm|HoleSize=0mm|Usage=FLASHONLY|Rotation=180.000|XOffset=0mm|YOffset=0mm|HoleType=Round|Shape=RoundedRectangle|*
%AMROUNDEDRECTD16*
21,1,1.5000,0.5000,0,0,180.0*
21,1,1.0000,1.0000,0,0,180.0*
1,1,0.5000,-0.5000,0.2500*
1,1,0.5000,0.5000,0.2500*
1,1,0.5000,0.5000,-0.2500*
1,1,0.5000,-0.5000,-0.2500*
%
%ADD16ROUNDEDRECTD16*%
%ADD17R,2.0000X0.6000*%
%ADD18R,0.9000X0.8000*%
%ADD19R,1.3000X1.5000*%
%ADD20R,2.4000X1.1000*%
%ADD21R,1.2000X1.3000*%
%ADD22R,0.6000X1.0000*%
%ADD23C,0.2540*%
%ADD24C,1.7000*%
%ADD25R,1.7000X1.7000*%
%ADD26R,1.7000X1.7000*%
%ADD27C,3.5000*%
%ADD28C,0.8000*%
%ADD29C,0.2500*%
%ADD30C,0.6000*%
%ADD31C,0.1524*%
%ADD32C,0.2000*%
D10*
X1353000Y930000D02*
D03*
Y910000D02*
D03*
X1175000Y593000D02*
D03*
Y573000D02*
D03*
X1246000D02*
D03*
Y593000D02*
D03*
X1067000Y573000D02*
D03*
Y593000D02*
D03*
X1138000Y573000D02*
D03*
Y593000D02*
D03*
X1105000Y742000D02*
D03*
Y762000D02*
D03*
X1080000D02*
D03*
Y742000D02*
D03*
X1357000Y738000D02*
D03*
Y718000D02*
D03*
X1132000Y762000D02*
D03*
Y742000D02*
D03*
X1303000Y680000D02*
D03*
Y700000D02*
D03*
X1157000Y762000D02*
D03*
Y742000D02*
D03*
X1331000Y718000D02*
D03*
Y738000D02*
D03*
X1110000Y679000D02*
D03*
Y659000D02*
D03*
X1110000Y701000D02*
D03*
Y721000D02*
D03*
X1283000Y573000D02*
D03*
Y593000D02*
D03*
X1162000Y905000D02*
D03*
Y885000D02*
D03*
X1353000Y884000D02*
D03*
Y864000D02*
D03*
X1307000Y787000D02*
D03*
Y807000D02*
D03*
D11*
X1134000Y980000D02*
D03*
X1028000Y569000D02*
D03*
X1027650Y604690D02*
D03*
D12*
X1221500Y573500D02*
D03*
Y592500D02*
D03*
X1194500Y583000D02*
D03*
X1113500Y573500D02*
D03*
Y592500D02*
D03*
X1086500Y583000D02*
D03*
D13*
X1143000Y668500D02*
D03*
Y710750D02*
D03*
D14*
X1335000Y617000D02*
D03*
Y646000D02*
D03*
Y675000D02*
D03*
D15*
X1096500Y540000D02*
D03*
X1276500Y410000D02*
D03*
X1231500D02*
D03*
X1096500D02*
D03*
X1111500Y540000D02*
D03*
X1261500D02*
D03*
X1276500D02*
D03*
D16*
X1079000Y422500D02*
D03*
D17*
X1277000Y632450D02*
D03*
Y645150D02*
D03*
Y657850D02*
D03*
Y670550D02*
D03*
Y683250D02*
D03*
Y695950D02*
D03*
Y708650D02*
D03*
Y721350D02*
D03*
Y734050D02*
D03*
Y746750D02*
D03*
Y759450D02*
D03*
Y772150D02*
D03*
Y784850D02*
D03*
Y797550D02*
D03*
X1183000Y632450D02*
D03*
Y645150D02*
D03*
Y657850D02*
D03*
Y670550D02*
D03*
Y683250D02*
D03*
Y695950D02*
D03*
Y708650D02*
D03*
Y721350D02*
D03*
Y734050D02*
D03*
Y746750D02*
D03*
Y759450D02*
D03*
Y772150D02*
D03*
Y784850D02*
D03*
Y797550D02*
D03*
D18*
X1323000Y573500D02*
D03*
Y592500D02*
D03*
X1303000Y583000D02*
D03*
D19*
X1188000Y875000D02*
D03*
X1217000D02*
D03*
X1333000Y778000D02*
D03*
X1362000D02*
D03*
D20*
X1202500Y913250D02*
D03*
X1347500Y816250D02*
D03*
D21*
X1276000Y930000D02*
D03*
X1256000D02*
D03*
X1329000D02*
D03*
X1309000D02*
D03*
X1276000Y864000D02*
D03*
X1256000D02*
D03*
X1309000D02*
D03*
X1329000D02*
D03*
D22*
X1256500Y883250D02*
D03*
X1266000D02*
D03*
X1275500D02*
D03*
Y910750D02*
D03*
X1256500D02*
D03*
X1309500Y883250D02*
D03*
X1319000D02*
D03*
X1328500D02*
D03*
Y910750D02*
D03*
X1309500D02*
D03*
M02*
