%FSLAX44Y44*%
%MOMM*%
G71*
G01*
G75*
G04 Layer_Color=65535*
%ADD10R,1.3000X1.2000*%
%ADD11R,1.0000X1.0000*%
%ADD12R,1.0000X0.8000*%
%ADD13R,2.0000X1.6000*%
%ADD14R,1.0000X1.0000*%
G04:AMPARAMS|DCode=15|XSize=1.5mm|YSize=1mm|CornerRadius=0.25mm|HoleSize=0mm|Usage=FLASHONLY|Rotation=270.000|XOffset=0mm|YOffset=0mm|HoleType=Round|Shape=RoundedRectangle|*
%AMROUNDEDRECTD15*
21,1,1.5000,0.5000,0,0,270.0*
21,1,1.0000,1.0000,0,0,270.0*
1,1,0.5000,-0.2500,-0.5000*
1,1,0.5000,-0.2500,0.5000*
1,1,0.5000,0.2500,0.5000*
1,1,0.5000,0.2500,-0.5000*
%
%ADD15ROUNDEDRECTD15*%
G04:AMPARAMS|DCode=16|XSize=1.5mm|YSize=1mm|CornerRadius=0.25mm|HoleSize=0mm|Usage=FLASHONLY|Rotation=180.000|XOffset=0mm|YOffset=0mm|HoleType=Round|Shape=RoundedRectangle|*
%AMROUNDEDRECTD16*
21,1,1.5000,0.5000,0,0,180.0*
21,1,1.0000,1.0000,0,0,180.0*
1,1,0.5000,-0.5000,0.2500*
1,1,0.5000,0.5000,0.2500*
1,1,0.5000,0.5000,-0.2500*
1,1,0.5000,-0.5000,-0.2500*
%
%ADD16ROUNDEDRECTD16*%
%ADD17R,2.0000X0.6000*%
%ADD18R,0.9000X0.8000*%
%ADD19R,1.3000X1.5000*%
%ADD20R,2.4000X1.1000*%
%ADD21R,1.2000X1.3000*%
%ADD22R,0.6000X1.0000*%
%ADD23C,0.2540*%
%ADD24C,1.7000*%
%ADD25R,1.7000X1.7000*%
%ADD26R,1.7000X1.7000*%
%ADD27C,3.5000*%
%ADD28C,0.8000*%
%ADD29C,0.2500*%
%ADD30C,0.6000*%
%ADD31C,0.1524*%
%ADD32C,0.2000*%
D23*
X1127000Y657250D02*
X1159000D01*
X1127000D02*
Y721500D01*
X1159000Y657250D02*
Y721500D01*
X1127000D02*
X1159000D01*
X1324000Y545000D02*
X1344000D01*
X1324000D02*
X1344000D01*
Y525000D02*
Y545000D01*
X1321500Y405000D02*
X1344000D01*
Y425000D01*
X1074000Y405000D02*
Y415000D01*
Y405000D02*
X1084000D01*
X1074000Y535000D02*
Y545000D01*
X1084000D01*
X1178000Y864000D02*
Y882500D01*
Y864000D02*
X1194250D01*
X1210500Y863750D02*
X1226750D01*
Y882500D01*
X1177750Y907500D02*
Y922000D01*
X1226750Y907500D02*
Y922000D01*
X1177750D02*
X1190250D01*
X1213750D02*
X1226750D01*
X1213750Y921750D02*
Y922000D01*
X1323000Y767000D02*
Y785500D01*
Y767000D02*
X1339250D01*
X1355500Y766750D02*
X1371750D01*
Y785500D01*
X1322750Y810500D02*
Y825000D01*
X1371750Y810500D02*
Y825000D01*
X1322750D02*
X1335250D01*
X1358750D02*
X1371750D01*
X1358750Y824750D02*
Y825000D01*
X1149000Y973000D02*
X1152999D01*
X1150999D01*
Y984996D01*
X1149000Y982997D01*
X1070000Y448000D02*
X1073999D01*
X1071999D01*
Y459996D01*
X1070000Y457997D01*
X1036000Y649000D02*
Y652999D01*
Y650999D01*
X1024004D01*
X1026003Y649000D01*
X1051000Y397235D02*
Y382000D01*
X1058617D01*
X1061157Y384539D01*
Y387078D01*
X1058617Y389618D01*
X1051000D01*
X1058617D01*
X1061157Y392157D01*
Y394696D01*
X1058617Y397235D01*
X1051000D01*
X1066235D02*
X1071313D01*
X1068774D01*
Y382000D01*
X1066235D01*
X1071313D01*
X1078931Y397235D02*
X1089088D01*
X1084009D01*
Y382000D01*
X1104323Y397235D02*
X1094166D01*
Y382000D01*
X1104323D01*
X1094166Y389618D02*
X1099244D01*
X1109401Y382000D02*
Y397235D01*
X1114480Y392157D01*
X1119558Y397235D01*
Y382000D01*
X1134793Y397235D02*
X1124636D01*
Y382000D01*
X1134793D01*
X1124636Y389618D02*
X1129715D01*
X1139871Y397235D02*
X1150028D01*
X1144950D01*
Y382000D01*
X1165263Y397235D02*
X1155106D01*
Y382000D01*
X1165263D01*
X1155106Y389618D02*
X1160185D01*
X1170341Y382000D02*
Y397235D01*
X1177959D01*
X1180498Y394696D01*
Y389618D01*
X1177959Y387078D01*
X1170341D01*
X1175420D02*
X1180498Y382000D01*
D29*
X1222750Y564000D02*
G03*
X1222750Y564000I-1250J0D01*
G01*
X1114750D02*
G03*
X1114750Y564000I-1250J0D01*
G01*
X1184250Y806050D02*
G03*
X1184250Y806050I-1250J0D01*
G01*
X1324250Y564000D02*
G03*
X1324250Y564000I-1250J0D01*
G01*
X1249250Y883250D02*
G03*
X1249250Y883250I-1250J0D01*
G01*
X1302250Y883250D02*
G03*
X1302250Y883250I-1250J0D01*
G01*
D30*
X1209500Y794500D02*
G03*
X1209500Y794500I-3000J0D01*
G01*
D31*
X1141500Y972500D02*
Y987500D01*
X1126500D02*
X1141500D01*
X1126500Y972500D02*
Y987500D01*
Y972500D02*
X1141500D01*
X1035500Y561500D02*
Y576500D01*
X1020500D02*
X1035500D01*
X1020500Y561500D02*
Y576500D01*
Y561500D02*
X1035500D01*
X1035150Y597190D02*
Y612190D01*
X1020150D02*
X1035150D01*
X1020150Y597190D02*
Y612190D01*
Y597190D02*
X1035150D01*
X1327500Y609500D02*
X1342500D01*
Y624500D01*
X1327500D02*
X1342500D01*
X1327500Y609500D02*
Y624500D01*
Y638500D02*
X1342500D01*
Y653500D01*
X1327500D02*
X1342500D01*
X1327500Y638500D02*
Y653500D01*
Y667500D02*
X1342500D01*
Y682500D01*
X1327500D02*
X1342500D01*
X1327500Y667500D02*
Y682500D01*
D32*
X1159550Y964550D02*
Y989950D01*
X1235750D01*
Y964550D02*
Y989950D01*
X1159550Y964550D02*
X1235750D01*
X1199000Y567500D02*
X1213000D01*
X1199000D02*
Y575000D01*
Y598500D02*
X1213000D01*
X1199000Y591000D02*
Y598500D01*
X1012900Y440300D02*
Y465700D01*
X1063700D01*
Y440300D02*
Y465700D01*
X1012900Y440300D02*
X1063700D01*
X1091000Y567500D02*
X1105000D01*
X1091000D02*
Y575000D01*
Y598500D02*
X1105000D01*
X1091000Y591000D02*
Y598500D01*
X1017300Y737150D02*
Y813350D01*
X1042700D01*
Y737150D02*
Y813350D01*
Y661300D02*
Y737500D01*
X1017300Y661300D02*
X1042700D01*
X1017300D02*
Y737500D01*
X1196500Y625500D02*
X1263500D01*
X1196500Y804500D02*
X1263500D01*
Y625500D02*
Y804500D01*
X1196500Y625500D02*
Y804500D01*
X1306000Y568000D02*
X1316000D01*
X1306000D02*
Y575000D01*
Y598000D02*
X1316000D01*
X1306000Y591000D02*
Y598000D01*
X1251000Y892000D02*
Y902000D01*
X1281000Y892000D02*
Y902000D01*
X1251000Y892000D02*
X1281000D01*
X1251000Y902000D02*
X1281000D01*
X1304000Y892000D02*
Y902000D01*
X1334000Y892000D02*
Y902000D01*
X1304000Y892000D02*
X1334000D01*
X1304000Y902000D02*
X1334000D01*
X1020000Y620999D02*
X1025332D01*
X1022666Y623665D02*
Y618333D01*
X1027997Y623665D02*
X1029330Y624997D01*
X1031996D01*
X1033329Y623665D01*
Y622332D01*
X1031996Y620999D01*
X1030663D01*
X1031996D01*
X1033329Y619666D01*
Y618333D01*
X1031996Y617000D01*
X1029330D01*
X1027997Y618333D01*
X1035995Y617000D02*
Y618333D01*
X1037328D01*
Y617000D01*
X1035995D01*
X1042659Y623665D02*
X1043992Y624997D01*
X1046658D01*
X1047991Y623665D01*
Y622332D01*
X1046658Y620999D01*
X1045325D01*
X1046658D01*
X1047991Y619666D01*
Y618333D01*
X1046658Y617000D01*
X1043992D01*
X1042659Y618333D01*
X1050657Y624997D02*
Y619666D01*
X1053323Y617000D01*
X1055988Y619666D01*
Y624997D01*
X1066332Y612664D02*
X1064999Y613997D01*
X1062333D01*
X1061000Y612664D01*
Y607333D01*
X1062333Y606000D01*
X1064999D01*
X1066332Y607333D01*
X1068997Y606000D02*
X1071663D01*
X1070330D01*
Y613997D01*
X1068997Y612664D01*
X1136332D02*
X1134999Y613997D01*
X1132333D01*
X1131000Y612664D01*
Y607333D01*
X1132333Y606000D01*
X1134999D01*
X1136332Y607333D01*
X1144329Y606000D02*
X1138997D01*
X1144329Y611332D01*
Y612664D01*
X1142996Y613997D01*
X1140330D01*
X1138997Y612664D01*
X1173332D02*
X1171999Y613997D01*
X1169333D01*
X1168000Y612664D01*
Y607333D01*
X1169333Y606000D01*
X1171999D01*
X1173332Y607333D01*
X1175997Y612664D02*
X1177330Y613997D01*
X1179996D01*
X1181329Y612664D01*
Y611332D01*
X1179996Y609999D01*
X1178663D01*
X1179996D01*
X1181329Y608666D01*
Y607333D01*
X1179996Y606000D01*
X1177330D01*
X1175997Y607333D01*
X1245332Y612664D02*
X1243999Y613997D01*
X1241333D01*
X1240000Y612664D01*
Y607333D01*
X1241333Y606000D01*
X1243999D01*
X1245332Y607333D01*
X1251996Y606000D02*
Y613997D01*
X1247998Y609999D01*
X1253329D01*
X1083332Y713664D02*
X1081999Y714997D01*
X1079333D01*
X1078000Y713664D01*
Y708333D01*
X1079333Y707000D01*
X1081999D01*
X1083332Y708333D01*
X1085997Y707000D02*
X1088663D01*
X1087330D01*
Y714997D01*
X1085997Y713664D01*
X1092662D02*
X1093995Y714997D01*
X1096661D01*
X1097994Y713664D01*
Y708333D01*
X1096661Y707000D01*
X1093995D01*
X1092662Y708333D01*
Y713664D01*
X1083332Y672664D02*
X1081999Y673997D01*
X1079333D01*
X1078000Y672664D01*
Y667333D01*
X1079333Y666000D01*
X1081999D01*
X1083332Y667333D01*
X1085997Y666000D02*
X1088663D01*
X1087330D01*
Y673997D01*
X1085997Y672664D01*
X1092662Y666000D02*
X1095328D01*
X1093995D01*
Y673997D01*
X1092662Y672664D01*
X1128332Y780665D02*
X1126999Y781997D01*
X1124333D01*
X1123000Y780665D01*
Y775333D01*
X1124333Y774000D01*
X1126999D01*
X1128332Y775333D01*
X1130997Y774000D02*
X1133663D01*
X1132330D01*
Y781997D01*
X1130997Y780665D01*
X1142993Y774000D02*
X1137662D01*
X1142993Y779332D01*
Y780665D01*
X1141661Y781997D01*
X1138995D01*
X1137662Y780665D01*
X1299332Y665665D02*
X1297999Y666997D01*
X1295333D01*
X1294000Y665665D01*
Y660333D01*
X1295333Y659000D01*
X1297999D01*
X1299332Y660333D01*
X1301997Y659000D02*
X1304663D01*
X1303330D01*
Y666997D01*
X1301997Y665665D01*
X1308662D02*
X1309995Y666997D01*
X1312661D01*
X1313994Y665665D01*
Y664332D01*
X1312661Y662999D01*
X1311328D01*
X1312661D01*
X1313994Y661666D01*
Y660333D01*
X1312661Y659000D01*
X1309995D01*
X1308662Y660333D01*
X1155331Y780665D02*
X1153998Y781997D01*
X1151333D01*
X1150000Y780665D01*
Y775333D01*
X1151333Y774000D01*
X1153998D01*
X1155331Y775333D01*
X1157997Y774000D02*
X1160663D01*
X1159330D01*
Y781997D01*
X1157997Y780665D01*
X1168660Y774000D02*
Y781997D01*
X1164662Y777999D01*
X1169993D01*
X1101331Y780665D02*
X1099998Y781997D01*
X1097333D01*
X1096000Y780665D01*
Y775333D01*
X1097333Y774000D01*
X1099998D01*
X1101331Y775333D01*
X1103997Y774000D02*
X1106663D01*
X1105330D01*
Y781997D01*
X1103997Y780665D01*
X1115993Y781997D02*
X1110662D01*
Y777999D01*
X1113327Y779332D01*
X1114660D01*
X1115993Y777999D01*
Y775333D01*
X1114660Y774000D01*
X1111995D01*
X1110662Y775333D01*
X1096332Y612664D02*
X1094999Y613997D01*
X1092333D01*
X1091000Y612664D01*
Y607333D01*
X1092333Y606000D01*
X1094999D01*
X1096332Y607333D01*
X1098997Y613997D02*
X1101663D01*
X1100330D01*
Y606000D01*
X1098997D01*
X1101663D01*
X1105662D02*
X1108328D01*
X1106995D01*
Y613997D01*
X1105662Y612664D01*
X1204332D02*
X1202999Y613997D01*
X1200333D01*
X1199000Y612664D01*
Y607333D01*
X1200333Y606000D01*
X1202999D01*
X1204332Y607333D01*
X1206997Y613997D02*
X1209663D01*
X1208330D01*
Y606000D01*
X1206997D01*
X1209663D01*
X1218994D02*
X1213662D01*
X1218994Y611332D01*
Y612664D01*
X1217661Y613997D01*
X1214995D01*
X1213662Y612664D01*
X1222332Y816665D02*
X1220999Y817997D01*
X1218333D01*
X1217000Y816665D01*
Y811333D01*
X1218333Y810000D01*
X1220999D01*
X1222332Y811333D01*
X1224997Y817997D02*
X1227663D01*
X1226330D01*
Y810000D01*
X1224997D01*
X1227663D01*
X1236994Y817997D02*
X1231662D01*
Y813999D01*
X1234328Y815332D01*
X1235661D01*
X1236994Y813999D01*
Y811333D01*
X1235661Y810000D01*
X1232995D01*
X1231662Y811333D01*
X1030332Y494664D02*
X1028999Y495997D01*
X1026333D01*
X1025000Y494664D01*
Y489333D01*
X1026333Y488000D01*
X1028999D01*
X1030332Y489333D01*
X1032997Y488000D02*
Y495997D01*
X1038329Y488000D01*
Y495997D01*
X1040995Y488000D02*
X1043661D01*
X1042328D01*
Y495997D01*
X1040995Y494664D01*
X1251332Y981665D02*
X1249999Y982997D01*
X1247333D01*
X1246000Y981665D01*
Y976333D01*
X1247333Y975000D01*
X1249999D01*
X1251332Y976333D01*
X1253997Y975000D02*
Y982997D01*
X1259329Y975000D01*
Y982997D01*
X1267326Y975000D02*
X1261995D01*
X1267326Y980332D01*
Y981665D01*
X1265994Y982997D01*
X1263328D01*
X1261995Y981665D01*
X1019965Y828620D02*
X1018632Y829952D01*
X1015966D01*
X1014633Y828620D01*
Y823288D01*
X1015966Y821955D01*
X1018632D01*
X1019965Y823288D01*
X1022630Y821955D02*
Y829952D01*
X1027962Y821955D01*
Y829952D01*
X1034627Y821955D02*
Y829952D01*
X1030628Y825954D01*
X1035959D01*
X1025332Y587664D02*
X1023999Y588997D01*
X1021333D01*
X1020000Y587664D01*
Y582333D01*
X1021333Y581000D01*
X1023999D01*
X1025332Y582333D01*
Y584999D01*
X1022666D01*
X1027997Y581000D02*
Y588997D01*
X1033329Y581000D01*
Y588997D01*
X1035995D02*
Y581000D01*
X1039994D01*
X1041327Y582333D01*
Y587664D01*
X1039994Y588997D01*
X1035995D01*
X1059000Y557997D02*
Y550000D01*
Y553999D01*
X1064332D01*
Y557997D01*
Y550000D01*
X1072329Y556665D02*
X1070996Y557997D01*
X1068330D01*
X1066997Y556665D01*
Y551333D01*
X1068330Y550000D01*
X1070996D01*
X1072329Y551333D01*
X1074995Y556665D02*
X1076328Y557997D01*
X1078994D01*
X1080326Y556665D01*
Y551333D01*
X1078994Y550000D01*
X1076328D01*
X1074995Y551333D01*
Y556665D01*
X1088324Y557997D02*
X1082992D01*
Y553999D01*
X1085658Y555332D01*
X1086991D01*
X1088324Y553999D01*
Y551333D01*
X1086991Y550000D01*
X1084325D01*
X1082992Y551333D01*
X1311332Y607333D02*
Y612664D01*
X1309999Y613997D01*
X1307333D01*
X1306000Y612664D01*
Y607333D01*
X1307333Y606000D01*
X1309999D01*
X1308666Y608666D02*
X1311332Y606000D01*
X1309999D02*
X1311332Y607333D01*
X1313997Y606000D02*
X1316663D01*
X1315330D01*
Y613997D01*
X1313997Y612664D01*
X1277000Y606000D02*
Y613997D01*
X1280999D01*
X1282332Y612664D01*
Y609999D01*
X1280999Y608666D01*
X1277000D01*
X1279666D02*
X1282332Y606000D01*
X1290329Y613997D02*
X1287663Y612664D01*
X1284997Y609999D01*
Y607333D01*
X1286330Y606000D01*
X1288996D01*
X1290329Y607333D01*
Y608666D01*
X1288996Y609999D01*
X1284997D01*
X1324000Y697000D02*
Y704997D01*
X1327999D01*
X1329332Y703664D01*
Y700999D01*
X1327999Y699666D01*
X1324000D01*
X1326666D02*
X1329332Y697000D01*
X1331997Y703664D02*
X1333330Y704997D01*
X1335996D01*
X1337329Y703664D01*
Y702332D01*
X1335996Y700999D01*
X1337329Y699666D01*
Y698333D01*
X1335996Y697000D01*
X1333330D01*
X1331997Y698333D01*
Y699666D01*
X1333330Y700999D01*
X1331997Y702332D01*
Y703664D01*
X1333330Y700999D02*
X1335996D01*
X1352000Y697000D02*
Y704997D01*
X1355999D01*
X1357332Y703664D01*
Y700999D01*
X1355999Y699666D01*
X1352000D01*
X1354666D02*
X1357332Y697000D01*
X1359997Y698333D02*
X1361330Y697000D01*
X1363996D01*
X1365329Y698333D01*
Y703664D01*
X1363996Y704997D01*
X1361330D01*
X1359997Y703664D01*
Y702332D01*
X1361330Y700999D01*
X1365329D01*
X1067000Y774000D02*
Y781997D01*
X1070999D01*
X1072332Y780665D01*
Y777999D01*
X1070999Y776666D01*
X1067000D01*
X1069666D02*
X1072332Y774000D01*
X1074997D02*
X1077663D01*
X1076330D01*
Y781997D01*
X1074997Y780665D01*
X1081662D02*
X1082995Y781997D01*
X1085661D01*
X1086994Y780665D01*
Y775333D01*
X1085661Y774000D01*
X1082995D01*
X1081662Y775333D01*
Y780665D01*
X1103000Y983997D02*
X1108332D01*
X1105666D01*
Y976000D01*
X1110997D02*
Y983997D01*
X1114996D01*
X1116329Y982664D01*
Y979999D01*
X1114996Y978666D01*
X1110997D01*
X1118995Y976000D02*
X1121661D01*
X1120328D01*
Y983997D01*
X1118995Y982664D01*
X1348000Y678997D02*
X1353332D01*
X1350666D01*
Y671000D01*
X1355997D02*
Y678997D01*
X1359996D01*
X1361329Y677664D01*
Y674999D01*
X1359996Y673666D01*
X1355997D01*
X1369326Y671000D02*
X1363995D01*
X1369326Y676332D01*
Y677664D01*
X1367994Y678997D01*
X1365328D01*
X1363995Y677664D01*
X1348000Y649997D02*
X1353332D01*
X1350666D01*
Y642000D01*
X1355997D02*
Y649997D01*
X1359996D01*
X1361329Y648664D01*
Y645999D01*
X1359996Y644666D01*
X1355997D01*
X1363995Y648664D02*
X1365328Y649997D01*
X1367994D01*
X1369326Y648664D01*
Y647332D01*
X1367994Y645999D01*
X1366661D01*
X1367994D01*
X1369326Y644666D01*
Y643333D01*
X1367994Y642000D01*
X1365328D01*
X1363995Y643333D01*
X1348000Y620997D02*
X1353332D01*
X1350666D01*
Y613000D01*
X1355997D02*
Y620997D01*
X1359996D01*
X1361329Y619664D01*
Y616999D01*
X1359996Y615666D01*
X1355997D01*
X1367994Y613000D02*
Y620997D01*
X1363995Y616999D01*
X1369326D01*
X1129030Y653927D02*
X1134362Y645930D01*
Y653927D02*
X1129030Y645930D01*
X1137027D02*
X1139693D01*
X1138360D01*
Y653927D01*
X1137027Y652595D01*
X1179000Y848000D02*
Y855997D01*
X1182999D01*
X1184332Y854665D01*
Y851999D01*
X1182999Y850666D01*
X1179000D01*
X1181666D02*
X1184332Y848000D01*
X1192329Y855997D02*
X1186997D01*
Y851999D01*
X1189663Y853332D01*
X1190996D01*
X1192329Y851999D01*
Y849333D01*
X1190996Y848000D01*
X1188330D01*
X1186997Y849333D01*
X1160056Y927147D02*
X1158723Y928479D01*
X1156057D01*
X1154724Y927147D01*
Y921815D01*
X1156057Y920482D01*
X1158723D01*
X1160056Y921815D01*
X1168053Y928479D02*
X1162721D01*
Y924481D01*
X1165387Y925814D01*
X1166720D01*
X1168053Y924481D01*
Y921815D01*
X1166720Y920482D01*
X1164054D01*
X1162721Y921815D01*
X1307332Y851665D02*
X1305999Y852997D01*
X1303333D01*
X1302000Y851665D01*
Y846333D01*
X1303333Y845000D01*
X1305999D01*
X1307332Y846333D01*
X1315329Y852997D02*
X1312663Y851665D01*
X1309997Y848999D01*
Y846333D01*
X1311330Y845000D01*
X1313996D01*
X1315329Y846333D01*
Y847666D01*
X1313996Y848999D01*
X1309997D01*
X1307332Y949665D02*
X1305999Y950997D01*
X1303333D01*
X1302000Y949665D01*
Y944333D01*
X1303333Y943000D01*
X1305999D01*
X1307332Y944333D01*
X1309997Y950997D02*
X1315329D01*
Y949665D01*
X1309997Y944333D01*
Y943000D01*
X1254332Y851665D02*
X1252999Y852997D01*
X1250333D01*
X1249000Y851665D01*
Y846333D01*
X1250333Y845000D01*
X1252999D01*
X1254332Y846333D01*
X1256997Y851665D02*
X1258330Y852997D01*
X1260996D01*
X1262329Y851665D01*
Y850332D01*
X1260996Y848999D01*
X1262329Y847666D01*
Y846333D01*
X1260996Y845000D01*
X1258330D01*
X1256997Y846333D01*
Y847666D01*
X1258330Y848999D01*
X1256997Y850332D01*
Y851665D01*
X1258330Y848999D02*
X1260996D01*
X1256332Y949665D02*
X1254999Y950997D01*
X1252333D01*
X1251000Y949665D01*
Y944333D01*
X1252333Y943000D01*
X1254999D01*
X1256332Y944333D01*
X1258997D02*
X1260330Y943000D01*
X1262996D01*
X1264329Y944333D01*
Y949665D01*
X1262996Y950997D01*
X1260330D01*
X1258997Y949665D01*
Y948332D01*
X1260330Y946999D01*
X1264329D01*
X1289335Y892332D02*
X1288003Y890999D01*
Y888333D01*
X1289335Y887000D01*
X1294667D01*
X1296000Y888333D01*
Y890999D01*
X1294667Y892332D01*
X1288003Y894997D02*
Y897663D01*
Y896330D01*
X1296000D01*
Y894997D01*
Y897663D01*
X1289335Y901662D02*
X1288003Y902995D01*
Y905661D01*
X1289335Y906994D01*
X1290668D01*
X1292001Y905661D01*
Y904328D01*
Y905661D01*
X1293334Y906994D01*
X1294667D01*
X1296000Y905661D01*
Y902995D01*
X1294667Y901662D01*
X1236336Y892332D02*
X1235003Y890999D01*
Y888333D01*
X1236336Y887000D01*
X1241667D01*
X1243000Y888333D01*
Y890999D01*
X1241667Y892332D01*
X1235003Y894997D02*
Y897663D01*
Y896330D01*
X1243000D01*
Y894997D01*
Y897663D01*
Y905661D02*
X1235003D01*
X1239001Y901662D01*
Y906994D01*
X1325000Y753000D02*
Y760997D01*
X1328999D01*
X1330332Y759665D01*
Y756999D01*
X1328999Y755666D01*
X1325000D01*
X1327666D02*
X1330332Y753000D01*
X1332997D02*
X1335663D01*
X1334330D01*
Y760997D01*
X1332997Y759665D01*
X1300000Y766000D02*
Y773997D01*
X1303999D01*
X1305332Y772664D01*
Y769999D01*
X1303999Y768666D01*
X1300000D01*
X1302666D02*
X1305332Y766000D01*
X1313329D02*
X1307997D01*
X1313329Y771332D01*
Y772664D01*
X1311996Y773997D01*
X1309330D01*
X1307997Y772664D01*
X1347000Y843000D02*
Y850997D01*
X1350999D01*
X1352332Y849665D01*
Y846999D01*
X1350999Y845666D01*
X1347000D01*
X1349666D02*
X1352332Y843000D01*
X1354997Y849665D02*
X1356330Y850997D01*
X1358996D01*
X1360329Y849665D01*
Y848332D01*
X1358996Y846999D01*
X1357663D01*
X1358996D01*
X1360329Y845666D01*
Y844333D01*
X1358996Y843000D01*
X1356330D01*
X1354997Y844333D01*
X1346000Y943000D02*
Y950997D01*
X1349999D01*
X1351332Y949665D01*
Y946999D01*
X1349999Y945666D01*
X1346000D01*
X1348666D02*
X1351332Y943000D01*
X1357996D02*
Y950997D01*
X1353997Y946999D01*
X1359329D01*
X1373003Y849000D02*
X1383000D01*
Y855665D01*
X1373003Y858997D02*
X1383000D01*
Y863995D01*
X1381334Y865661D01*
X1379668D01*
X1378002Y863995D01*
Y858997D01*
Y863995D01*
X1376335Y865661D01*
X1374669D01*
X1373003Y863995D01*
Y858997D01*
Y878990D02*
X1379668D01*
X1383000Y882323D01*
X1379668Y885655D01*
X1373003D01*
X1374669Y888987D02*
X1373003Y890653D01*
Y893986D01*
X1374669Y895652D01*
X1381334D01*
X1383000Y893986D01*
Y890653D01*
X1381334Y888987D01*
X1374669D01*
X1383000Y898984D02*
Y902316D01*
Y900650D01*
X1373003D01*
X1374669Y898984D01*
X1383000Y917311D02*
X1373003D01*
Y922310D01*
X1374669Y923976D01*
X1378002D01*
X1379668Y922310D01*
Y917311D01*
Y920644D02*
X1383000Y923976D01*
X1374669Y927308D02*
X1373003Y928974D01*
Y932307D01*
X1374669Y933973D01*
X1381334D01*
X1383000Y932307D01*
Y928974D01*
X1381334Y927308D01*
X1374669D01*
Y937305D02*
X1373003Y938971D01*
Y942303D01*
X1374669Y943969D01*
X1376335D01*
X1378002Y942303D01*
Y940637D01*
Y942303D01*
X1379668Y943969D01*
X1381334D01*
X1383000Y942303D01*
Y938971D01*
X1381334Y937305D01*
M02*
